#!OML:ASF X:\für Bonn\!DataBase\2005_08_12_Daniel\c3d\Daniel.ASF
:FULLY-SPECIFIED
:DEGREES
31
root 1.11801 17.1026 1.69262 164.229 -3.14823 -177.886
lowerback 23.7756 -2.23367 5.35175
upperback 7.407 -3.27538 -0.375902
thorax -5.30821 -2.25433 -2.49325
lowerneck 5.99964 -0.410956 -4.95899
upperneck 25.0959 3.64227 -2.22276
head 6.72104 2.49324 0.418284
rclavicle -1.80956e-014 7.70291e-016
rhumerus -40.5755 24.6711 -102.069
rradius 71.9661
rwrist -63.0806
rhand -13.7724 5.69001
rfingers 7.12502
rthumb 12.3486 -23.9253
lclavicle -1.80956e-014 7.70291e-016
lhumerus -31.3511 26.2873 80.4953
lradius 38.6698
lwrist -13.9577
lhand -12.344 -7.3293
lfingers 7.12502
lthumb 13.7255 22.198
rfemur -5.81398 2.45412 21.9713
rtibia 32.5688
rfoot -13.4773 -6.73343
rtoes -8.17852
lfemur -5.93957 -3.42141 -9.82444
ltibia 67.0757
lfoot -8.80585 -9.63393
ltoes -10.3978
32
root 1.12986 17.1051 1.65537 164.351 -3.27709 -177.978
lowerback 24.0492 -2.13605 5.40045
upperback 7.44266 -3.14116 -0.375382
thorax -5.39501 -2.19798 -2.5482
lowerneck 5.9884 -0.525096 -5.04454
upperneck 25.063 3.43396 -2.04519
head 6.70942 2.39399 0.481898
rclavicle 2.00835e-014 -6.68413e-015
rhumerus -40.3047 24.3708 -101.643
rradius 71.8284
rwrist -62.7152
rhand -13.7355 5.56564
rfingers 7.12502
rthumb 12.3842 -24.0475
lclavicle 2.00835e-014 -6.68413e-015
lhumerus -31.1816 26.3146 80.6611
lradius 38.2971
lwrist -14.4829
lhand -12.2908 -7.30444
lfingers 7.12502
lthumb 13.7768 22.2194
rfemur -5.8609 2.49484 21.9282
rtibia 32.7129
rfoot -13.6662 -6.86408
rtoes -8.34274
lfemur -6.71019 -3.53255 -10.0837
ltibia 67.0273
lfoot -9.55133 -8.65666
ltoes -10.2168
33
root 1.1406 17.1108 1.61845 164.451 -3.38472 -178.08
lowerback 24.375 -2.04655 5.4582
upperback 7.46349 -3.0121 -0.39348
thorax -5.52526 -2.14489 -2.6254
lowerneck 6.04046 -0.61362 -5.17945
upperneck 25.014 3.24769 -1.80287
head 6.68099 2.30799 0.574552
rclavicle -9.90817e-016 4.38569e-015
rhumerus -40.0993 24.0437 -101.254
rradius 71.6758
rwrist -62.4233
rhand -13.6379 5.54639
rfingers 7.12502
rthumb 12.4782 -24.0611
lclavicle -9.90817e-016 4.38569e-015
lhumerus -31.0562 26.3339 80.7838
lradius 37.8806
lwrist -14.9305
lhand -12.2561 -7.29904
lfingers 7.12502
lthumb 13.8102 22.2225
rfemur -5.85877 2.45984 21.8574
rtibia 32.8022
rfoot -13.8229 -6.91748
rtoes -8.55122
lfemur -7.35394 -3.6272 -10.3654
ltibia 66.7667
lfoot -10.3393 -7.87128
ltoes -9.77857
34
root 1.15036 17.1181 1.58429 164.586 -3.48257 -178.172
lowerback 24.6702 -1.94317 5.51406
upperback 7.50286 -2.86999 -0.396586
thorax -5.61687 -2.08604 -2.6919
lowerneck 6.06589 -0.708281 -5.30512
upperneck 24.9168 3.04077 -1.57838
head 6.64213 2.20728 0.658328
rclavicle -3.38245e-015 -2.50966e-015
rhumerus -39.7915 23.7019 -100.818
rradius 71.462
rwrist -62.1262
rhand -13.5371 5.5934
rfingers 7.12502
rthumb 12.5754 -24.0081
lclavicle -3.38245e-015 -2.50966e-015
lhumerus -30.8812 26.4006 80.9183
lradius 37.4364
lwrist -15.4334
lhand -12.1783 -7.25526
lfingers 7.12502
lthumb 13.8852 22.2612
rfemur -5.87377 2.49352 21.8035
rtibia 32.8327
rfoot -13.97 -7.01261
rtoes -8.63825
lfemur -7.93979 -3.73225 -10.6454
ltibia 66.2821
lfoot -11.172 -7.23979
ltoes -9.34412
35
root 1.15914 17.1259 1.54917 164.725 -3.5641 -178.287
lowerback 24.9453 -1.83042 5.52848
upperback 7.55745 -2.73037 -0.399591
thorax -5.68009 -2.02896 -2.73602
lowerneck 6.05676 -0.799752 -5.43378
upperneck 24.8424 2.84475 -1.36271
head 6.61726 2.10984 0.741057
rclavicle -2.59096e-014 9.84295e-015
rhumerus -39.455 23.4133 -100.366
rradius 71.2701
rwrist -61.9364
rhand -13.4722 5.63809
rfingers 7.12502
rthumb 12.638 -23.9596
lclavicle -2.59096e-014 9.84295e-015
lhumerus -30.7275 26.509 81.0498
lradius 37.0069
lwrist -15.9146
lhand -12.1361 -7.19823
lfingers 7.12502
lthumb 13.9258 22.3154
rfemur -5.86281 2.51734 21.7256
rtibia 32.8082
rfoot -14.0448 -7.10182
rtoes -8.60741
lfemur -8.42561 -3.82966 -10.9642
ltibia 65.5798
lfoot -11.9912 -6.67012
ltoes -8.80988
36
root 1.16736 17.1378 1.51418 164.874 -3.61948 -178.404
lowerback 25.2369 -1.72066 5.5404
upperback 7.58162 -2.58779 -0.416117
thorax -5.78514 -1.96911 -2.79394
lowerneck 6.18235 -0.885984 -5.52119
upperneck 24.7161 2.65769 -1.17387
head 6.55422 2.0237 0.80602
rclavicle -1.68532e-014 7.442e-015
rhumerus -39.1574 23.1143 -99.9802
rradius 71.0719
rwrist -61.7649
rhand -13.4742 5.66711
rfingers 7.12502
rthumb 12.6361 -23.9307
lclavicle -1.68532e-014 7.442e-015
lhumerus -30.6451 26.5504 81.1195
lradius 36.5563
lwrist -16.2401
lhand -12.0736 -7.13491
lfingers 7.12502
lthumb 13.9861 22.3746
rfemur -5.82555 2.60163 21.6583
rtibia 32.7262
rfoot -14.1374 -7.22691
rtoes -8.68295
lfemur -8.82534 -3.90393 -11.2911
ltibia 64.6798
lfoot -12.7224 -6.13665
ltoes -8.46086
